<svg xmlns="http://www.w3.org/2000/svg" viewBox="0 0 80 112" width="100%" height="100%">
  <defs>
    <linearGradient id="inkGrad" x1="0%" y1="0%" x2="0%" y2="100%">
      <stop offset="0%" stop-color="#818CF8" />
      <stop offset="100%" stop-color="#4F46E5" />
    </linearGradient>
    <linearGradient id="forgeGrad" x1="0%" y1="0%" x2="0%" y2="100%">
      <stop offset="0%" stop-color="#49454F" />
      <stop offset="100%" stop-color="#1C1B1F" />
    </linearGradient>
    <filter id="pixelGlow">
      <feDropShadow dx="0" dy="0" stdDeviation="1.5" flood-color="#FFB400" flood-opacity="0.8" />
    </filter>
  </defs>

  <g transform="translate(8, 40) scale(4)">
    <g id="magic-aura">
      <path d="
        M 6,-8 h4 v1 h-4 z
        M 4,-7 h8 v1 h-8 z
        M 3,-6 h10 v2 h-10 z
        M 2,-4 h12 v2 h-12 z
        M 1,-2 h14 v9 h-14 z
        M 2,7 h12 v2 h-12 z
        M 3,9 h10 v2 h-10 z
        M 4,11 h8 v1 h-8 z
        M 6,12 h4 v1 h-4 z
      " fill="#0F172A" opacity="0.5" />
      <path d="
        M 7,-6 h2 v1 h-2 z
        M 4,-3 h1 v2 h-1 z
        M 11,-3 h1 v2 h-1 z
        M 3,1 h1 v4 h-1 z
        M 12,1 h1 v4 h-1 z
        M 4,6 h1 v2 h-1 z
        M 11,6 h1 v2 h-1 z
        M 7,10 h2 v1 h-2 z
      " fill="#4F46E5" opacity="0.4" />
      <path d="
        M 7,-7 h2 v1 h-2 z
        M 2,-2 h1 v1 h-1 z
        M 13,-2 h1 v1 h-1 z
        M 2,7 h1 v1 h-1 z
        M 13,7 h1 v1 h-1 z
        M 7,11 h2 v1 h-2 z
      " fill="#818CF8" opacity="0.7" />
    </g>

    <path d="M7,1 h1v1h-1z M8,0 h1v1h-1z M9,-1 h1v1h-1z M10,-2 h1v1h-1z M11,-3 h1v1h-1z M12,-4 h1v1h-1z M13,-5 h1v1h-1z" fill="#FDE047" />
    <path d="M7,0 h1v1h-1z M8,-2 h1v2h-1z M9,-3 h1v2h-1z M10,-4 h1v2h-1z M11,-5 h1v2h-1z M12,-6 h1v2h-1z" fill="#F8FAFC" />
    <path d="M9,1 h1v1h-1z M10,0 h1v2h-1z M11,-1 h1v2h-1z M12,-2 h1v2h-1z M13,-3 h1v2h-1z" fill="#CBD5E1" />

    <path d="
      M 6,2 h4v1h-4z
      M 7,3 h2v1h-2z
      M 7,4 h2v1h-2z
      M 6,5 h4v1h-4z
      M 6,6 h4v1h-4z
      M 5,7 h6v1h-6z
      M 5,8 h6v1h-6z
      M 4,9 h8v1h-8z
    " fill="url(#inkGrad)" />
    <path d="M 5,7 h2v1h-2z M 6,5 h1v2h-1z M 7,3 h1v2h-1z" fill="#C7D2FE" opacity="0.8" />

    <path d="
      M 5,10 h6v1h-6z
      M 2,11 h12v1h-12z
      M 1,12 h14v1h-14z
      M 6,13 h4v1h-4z
      M 5,14 h6v1h-6z
      M 4,15 h8v1h-8z
      M 2,16 h12v1h-12z
    " fill="url(#forgeGrad)" />
    <path d="M 5,10 h4v1h-4z M 2,11 h2v1h-2z M 1,12 h2v1h-2z" fill="#CAC4D0" opacity="0.4" />

    <path d="M 1,8 h1v1h-1z M 14,9 h1v1h-1z M 2,13 h1v1h-1z M 15,14 h1v1h-1z" fill="#FFB400" filter="url(#pixelGlow)" />
  </g>
</svg>
